<svg width="14" height="20" viewBox="0 0 14 20" fill="none" xmlns="http://www.w3.org/2000/svg">
<path d="M12.797 3.42501C11.584 1.33001 9.42702 0.0500121 7.03002 0.00201207C6.92737 -0.000101029 6.82468 -0.000101029 6.72202 0.00201207C4.32502 0.0500121 2.17002 1.33001 0.955024 3.42501C0.345415 4.46578 0.0166169 5.64706 0.000839969 6.85312C-0.014937 8.05918 0.282849 9.24865 0.865024 10.305L5.82402 19.382L5.83102 19.394C6.04902 19.774 6.44002 20 6.87602 20C7.31302 20 7.70402 19.774 7.92202 19.394L7.92902 19.382L12.889 10.305C13.4709 9.24848 13.7683 8.05891 13.7522 6.85285C13.7361 5.64679 13.4069 4.46561 12.797 3.42501ZM6.87702 9.06301C5.32502 9.06301 4.06402 7.80101 4.06402 6.25001C4.06402 4.69901 5.32502 3.43801 6.87602 3.43801C8.42702 3.43801 9.69002 4.69901 9.69002 6.25001C9.69002 7.80101 8.42802 9.06301 6.87702 9.06301Z" fill="#4B6A9B"/>
</svg>
