<svg width="20" height="20" viewBox="0 0 20 20" fill="none" xmlns="http://www.w3.org/2000/svg">
<path d="M10.858 1.55798L1.7 0.166978C1.49104 0.133219 1.27727 0.144767 1.07316 0.20084C0.869053 0.256913 0.679384 0.356201 0.517 0.491978C0.356356 0.630481 0.227135 0.801685 0.137976 0.994144C0.0488175 1.1866 0.00177693 1.39588 0 1.60798L0 19.167C0 19.625 0.375 20 0.833 20H3.542V15.625C3.542 14.817 4.192 14.167 5 14.167H7.083C7.892 14.167 8.542 14.817 8.542 15.625V20H12.083V2.99998C12.0832 2.65332 11.9601 2.31788 11.7357 2.05369C11.5113 1.78949 11.2001 1.61378 10.858 1.55798ZM4.583 12.292H3.333C3.16724 12.292 3.00827 12.2261 2.89106 12.1089C2.77385 11.9917 2.708 11.8327 2.708 11.667C2.708 11.5012 2.77385 11.3422 2.89106 11.225C3.00827 11.1078 3.16724 11.042 3.333 11.042H4.583C4.74876 11.042 4.90773 11.1078 5.02494 11.225C5.14215 11.3422 5.208 11.5012 5.208 11.667C5.208 11.8327 5.14215 11.9917 5.02494 12.1089C4.90773 12.2261 4.74876 12.292 4.583 12.292ZM4.583 9.79198H3.333C3.16724 9.79198 3.00827 9.72613 2.89106 9.60892C2.77385 9.49171 2.708 9.33274 2.708 9.16698C2.708 9.00122 2.77385 8.84225 2.89106 8.72504C3.00827 8.60783 3.16724 8.54198 3.333 8.54198H4.583C4.74876 8.54198 4.90773 8.60783 5.02494 8.72504C5.14215 8.84225 5.208 9.00122 5.208 9.16698C5.208 9.33274 5.14215 9.49171 5.02494 9.60892C4.90773 9.72613 4.74876 9.79198 4.583 9.79198ZM4.583 7.29198H3.333C3.16724 7.29198 3.00827 7.22613 2.89106 7.10892C2.77385 6.99171 2.708 6.83274 2.708 6.66698C2.708 6.50122 2.77385 6.34225 2.89106 6.22504C3.00827 6.10783 3.16724 6.04198 3.333 6.04198H4.583C4.74876 6.04198 4.90773 6.10783 5.02494 6.22504C5.14215 6.34225 5.208 6.50122 5.208 6.66698C5.208 6.83274 5.14215 6.99171 5.02494 7.10892C4.90773 7.22613 4.74876 7.29198 4.583 7.29198ZM4.583 4.79198H3.333C3.16724 4.79198 3.00827 4.72613 2.89106 4.60892C2.77385 4.49171 2.708 4.33274 2.708 4.16698C2.708 4.00122 2.77385 3.84225 2.89106 3.72504C3.00827 3.60783 3.16724 3.54198 3.333 3.54198H4.583C4.74876 3.54198 4.90773 3.60783 5.02494 3.72504C5.14215 3.84225 5.208 4.00122 5.208 4.16698C5.208 4.33274 5.14215 4.49171 5.02494 4.60892C4.90773 4.72613 4.74876 4.79198 4.583 4.79198ZM8.75 12.292H7.5C7.33424 12.292 7.17527 12.2261 7.05806 12.1089C6.94085 11.9917 6.875 11.8327 6.875 11.667C6.875 11.5012 6.94085 11.3422 7.05806 11.225C7.17527 11.1078 7.33424 11.042 7.5 11.042H8.75C8.91576 11.042 9.07473 11.1078 9.19194 11.225C9.30915 11.3422 9.375 11.5012 9.375 11.667C9.375 11.8327 9.30915 11.9917 9.19194 12.1089C9.07473 12.2261 8.91576 12.292 8.75 12.292ZM8.75 9.79198H7.5C7.33424 9.79198 7.17527 9.72613 7.05806 9.60892C6.94085 9.49171 6.875 9.33274 6.875 9.16698C6.875 9.00122 6.94085 8.84225 7.05806 8.72504C7.17527 8.60783 7.33424 8.54198 7.5 8.54198H8.75C8.91576 8.54198 9.07473 8.60783 9.19194 8.72504C9.30915 8.84225 9.375 9.00122 9.375 9.16698C9.375 9.33274 9.30915 9.49171 9.19194 9.60892C9.07473 9.72613 8.91576 9.79198 8.75 9.79198ZM8.75 7.29198H7.5C7.33424 7.29198 7.17527 7.22613 7.05806 7.10892C6.94085 6.99171 6.875 6.83274 6.875 6.66698C6.875 6.50122 6.94085 6.34225 7.05806 6.22504C7.17527 6.10783 7.33424 6.04198 7.5 6.04198H8.75C8.91576 6.04198 9.07473 6.10783 9.19194 6.22504C9.30915 6.34225 9.375 6.50122 9.375 6.66698C9.375 6.83274 9.30915 6.99171 9.19194 7.10892C9.07473 7.22613 8.91576 7.29198 8.75 7.29198ZM8.75 4.79198H7.5C7.33424 4.79198 7.17527 4.72613 7.05806 4.60892C6.94085 4.49171 6.875 4.33274 6.875 4.16698C6.875 4.00122 6.94085 3.84225 7.05806 3.72504C7.17527 3.60783 7.33424 3.54198 7.5 3.54198H8.75C8.91576 3.54198 9.07473 3.60783 9.19194 3.72504C9.30915 3.84225 9.375 4.00122 9.375 4.16698C9.375 4.33274 9.30915 4.49171 9.19194 4.60892C9.07473 4.72613 8.91576 4.79198 8.75 4.79198ZM18.85 9.03498L12.917 7.79298V20H18.542C18.9285 19.9994 19.2991 19.8457 19.5724 19.5724C19.8457 19.299 19.9995 18.9285 20 18.542V10.46C20 9.77198 19.53 9.18598 18.85 9.03498ZM16.875 17.5H15.625C15.4592 17.5 15.3003 17.4341 15.1831 17.3169C15.0658 17.1997 15 17.0407 15 16.875C15 16.7092 15.0658 16.5502 15.1831 16.433C15.3003 16.3158 15.4592 16.25 15.625 16.25H16.875C17.0408 16.25 17.1997 16.3158 17.3169 16.433C17.4342 16.5502 17.5 16.7092 17.5 16.875C17.5 17.0407 17.4342 17.1997 17.3169 17.3169C17.1997 17.4341 17.0408 17.5 16.875 17.5ZM16.875 15H15.625C15.4592 15 15.3003 14.9341 15.1831 14.8169C15.0658 14.6997 15 14.5407 15 14.375C15 14.2092 15.0658 14.0502 15.1831 13.933C15.3003 13.8158 15.4592 13.75 15.625 13.75H16.875C17.0408 13.75 17.1997 13.8158 17.3169 13.933C17.4342 14.0502 17.5 14.2092 17.5 14.375C17.5 14.5407 17.4342 14.6997 17.3169 14.8169C17.1997 14.9341 17.0408 15 16.875 15ZM16.875 12.5H15.625C15.4592 12.5 15.3003 12.4341 15.1831 12.3169C15.0658 12.1997 15 12.0407 15 11.875C15 11.7092 15.0658 11.5502 15.1831 11.433C15.3003 11.3158 15.4592 11.25 15.625 11.25H16.875C17.0408 11.25 17.1997 11.3158 17.3169 11.433C17.4342 11.5502 17.5 11.7092 17.5 11.875C17.5 12.0407 17.4342 12.1997 17.3169 12.3169C17.1997 12.4341 17.0408 12.5 16.875 12.5Z" fill="#4B6A9B"/>
</svg>
