<svg width="125" height="20" viewBox="0 0 125 20" fill="none" xmlns="http://www.w3.org/2000/svg">
<path d="M11.246 17.024H10.934C10.726 17.4227 10.4573 17.7693 10.128 18.064C9.816 18.3587 9.46933 18.6013 9.088 18.792C8.724 18.9827 8.334 19.1213 7.918 19.208C7.502 19.312 7.10333 19.364 6.722 19.364C5.85533 19.364 5.04933 19.2167 4.304 18.922C3.55867 18.6273 2.9 18.2027 2.328 17.648C1.77333 17.0933 1.33133 16.4087 1.002 15.594C0.69 14.762 0.534 13.8173 0.534 12.76V12.344C0.534 11.304 0.698667 10.3767 1.028 9.562C1.35733 8.73 1.79933 8.03667 2.354 7.482C2.90867 6.91 3.55867 6.47667 4.304 6.182C5.04933 5.88733 5.838 5.74 6.67 5.74C7.554 5.74 8.37733 5.93933 9.14 6.338C9.92 6.71933 10.518 7.31733 10.934 8.132H11.246V0.799999H13.274V19H11.246V17.024ZM6.93 17.44C7.53667 17.44 8.1 17.3273 8.62 17.102C9.14 16.8767 9.59067 16.556 9.972 16.14C10.3707 15.724 10.6827 15.23 10.908 14.658C11.1333 14.0687 11.246 13.4187 11.246 12.708V12.396C11.246 11.7027 11.1333 11.07 10.908 10.498C10.6827 9.90867 10.3707 9.406 9.972 8.99C9.59067 8.574 9.13133 8.25333 8.594 8.028C8.074 7.78533 7.51933 7.664 6.93 7.664C6.32333 7.664 5.75133 7.77667 5.214 8.002C4.694 8.22733 4.23467 8.548 3.836 8.964C3.45467 9.38 3.15133 9.874 2.926 10.446C2.718 11.018 2.614 11.6507 2.614 12.344V12.76C2.614 13.488 2.718 14.138 2.926 14.71C3.15133 15.282 3.45467 15.776 3.836 16.192C4.23467 16.5907 4.694 16.9027 5.214 17.128C5.734 17.336 6.306 17.44 6.93 17.44ZM18.6639 13.176C18.7159 14.4587 19.1146 15.49 19.8599 16.27C20.6053 17.05 21.6453 17.44 22.9799 17.44C23.5866 17.44 24.1153 17.3707 24.5659 17.232C25.0166 17.0933 25.3979 16.9027 25.7099 16.66C26.0393 16.4173 26.2993 16.14 26.4899 15.828C26.6979 15.4987 26.8626 15.152 26.9839 14.788L28.9079 15.308C28.5439 16.504 27.8679 17.4833 26.8799 18.246C25.9093 18.9913 24.5919 19.364 22.9279 19.364C22.0093 19.364 21.1599 19.208 20.3799 18.896C19.6173 18.5667 18.9586 18.1073 18.4039 17.518C17.8493 16.9287 17.4159 16.2267 17.1039 15.412C16.7919 14.5973 16.6359 13.696 16.6359 12.708V12.084C16.6359 11.1827 16.7919 10.342 17.1039 9.562C17.4333 8.782 17.8839 8.11467 18.4559 7.56C19.0279 6.988 19.6953 6.546 20.4579 6.234C21.2379 5.90467 22.0786 5.74 22.9799 5.74C24.0373 5.74 24.9473 5.93933 25.7099 6.338C26.4899 6.71933 27.1226 7.196 27.6079 7.768C28.1106 8.34 28.4746 8.964 28.6999 9.64C28.9426 10.316 29.0639 10.94 29.0639 11.512V13.176H18.6639ZM22.9799 7.664C22.4079 7.664 21.8706 7.75933 21.3679 7.95C20.8826 8.12333 20.4493 8.37467 20.0679 8.704C19.7039 9.03333 19.4006 9.42333 19.1579 9.874C18.9326 10.3073 18.7853 10.784 18.7159 11.304H27.0359C27.0013 10.7493 26.8626 10.2467 26.6199 9.796C26.3946 9.34533 26.0913 8.964 25.7099 8.652C25.3459 8.34 24.9213 8.09733 24.4359 7.924C23.9679 7.75067 23.4826 7.664 22.9799 7.664ZM40.7718 19H36.7678L32.2698 6.104H34.6618L38.6138 18.064H38.9258L42.8778 6.104H45.2698L40.7718 19ZM56.7438 2.256C56.7438 1.75333 56.9171 1.32867 57.2638 0.982C57.6278 0.617999 58.0611 0.435999 58.5638 0.435999C59.0664 0.435999 59.4911 0.617999 59.8378 0.982C60.2018 1.32867 60.3838 1.75333 60.3838 2.256C60.3838 2.75867 60.2018 3.192 59.8378 3.556C59.4911 3.90267 59.0664 4.076 58.5638 4.076C58.0611 4.076 57.6278 3.90267 57.2638 3.556C56.9171 3.192 56.7438 2.75867 56.7438 2.256ZM57.5758 19V7.976H53.0778V19H51.0498V7.976H48.0078V6.104H51.0498V3.348C51.0498 2.75867 51.2318 2.27333 51.5958 1.892C51.9771 1.51067 52.4624 1.32 53.0518 1.32H55.8078V3.192H53.7798C53.3118 3.192 53.0778 3.452 53.0778 3.972V6.104H59.6038V19H57.5758ZM66.9697 19H64.9417V6.104H66.9697V8.288H67.2817C68.079 6.58933 69.4657 5.74 71.4417 5.74C72.9324 5.74 74.1197 6.208 75.0037 7.144C75.8877 8.06267 76.3297 9.44933 76.3297 11.304V19H74.3017V11.72C74.3017 10.368 73.9984 9.354 73.3917 8.678C72.785 8.002 71.9617 7.664 70.9217 7.664C69.691 7.664 68.7204 8.08867 68.0097 8.938C67.3164 9.77 66.9697 10.888 66.9697 12.292V19ZM90.8456 17.024H90.5336C90.3256 17.4227 90.0569 17.7693 89.7276 18.064C89.4156 18.3587 89.0689 18.6013 88.6876 18.792C88.3236 18.9827 87.9336 19.1213 87.5176 19.208C87.1016 19.312 86.7029 19.364 86.3216 19.364C85.4549 19.364 84.6489 19.2167 83.9036 18.922C83.1583 18.6273 82.4996 18.2027 81.9276 17.648C81.3729 17.0933 80.9309 16.4087 80.6016 15.594C80.2896 14.762 80.1336 13.8173 80.1336 12.76V12.344C80.1336 11.304 80.2983 10.3767 80.6276 9.562C80.9569 8.73 81.3989 8.03667 81.9536 7.482C82.5083 6.91 83.1583 6.47667 83.9036 6.182C84.6489 5.88733 85.4376 5.74 86.2696 5.74C87.1536 5.74 87.9769 5.93933 88.7396 6.338C89.5196 6.71933 90.1176 7.31733 90.5336 8.132H90.8456V0.799999H92.8736V19H90.8456V17.024ZM86.5296 17.44C87.1363 17.44 87.6996 17.3273 88.2196 17.102C88.7396 16.8767 89.1903 16.556 89.5716 16.14C89.9703 15.724 90.2823 15.23 90.5076 14.658C90.7329 14.0687 90.8456 13.4187 90.8456 12.708V12.396C90.8456 11.7027 90.7329 11.07 90.5076 10.498C90.2823 9.90867 89.9703 9.406 89.5716 8.99C89.1903 8.574 88.7309 8.25333 88.1936 8.028C87.6736 7.78533 87.1189 7.664 86.5296 7.664C85.9229 7.664 85.3509 7.77667 84.8136 8.002C84.2936 8.22733 83.8343 8.548 83.4356 8.964C83.0543 9.38 82.7509 9.874 82.5256 10.446C82.3176 11.018 82.2136 11.6507 82.2136 12.344V12.76C82.2136 13.488 82.3176 14.138 82.5256 14.71C82.7509 15.282 83.0543 15.776 83.4356 16.192C83.8343 16.5907 84.2936 16.9027 84.8136 17.128C85.3336 17.336 85.9056 17.44 86.5296 17.44ZM98.2635 13.176C98.3155 14.4587 98.7142 15.49 99.4595 16.27C100.205 17.05 101.245 17.44 102.58 17.44C103.186 17.44 103.715 17.3707 104.166 17.232C104.616 17.0933 104.998 16.9027 105.31 16.66C105.639 16.4173 105.899 16.14 106.09 15.828C106.298 15.4987 106.462 15.152 106.584 14.788L108.508 15.308C108.144 16.504 107.468 17.4833 106.48 18.246C105.509 18.9913 104.192 19.364 102.528 19.364C101.609 19.364 100.76 19.208 99.9795 18.896C99.2169 18.5667 98.5582 18.1073 98.0035 17.518C97.4489 16.9287 97.0155 16.2267 96.7035 15.412C96.3915 14.5973 96.2355 13.696 96.2355 12.708V12.084C96.2355 11.1827 96.3915 10.342 96.7035 9.562C97.0329 8.782 97.4835 8.11467 98.0555 7.56C98.6275 6.988 99.2949 6.546 100.058 6.234C100.838 5.90467 101.678 5.74 102.58 5.74C103.637 5.74 104.547 5.93933 105.31 6.338C106.09 6.71933 106.722 7.196 107.208 7.768C107.71 8.34 108.074 8.964 108.3 9.64C108.542 10.316 108.664 10.94 108.664 11.512V13.176H98.2635ZM102.58 7.664C102.008 7.664 101.47 7.75933 100.968 7.95C100.482 8.12333 100.049 8.37467 99.6675 8.704C99.3035 9.03333 99.0002 9.42333 98.7575 9.874C98.5322 10.3073 98.3849 10.784 98.3155 11.304H106.636C106.601 10.7493 106.462 10.2467 106.22 9.796C105.994 9.34533 105.691 8.964 105.31 8.652C104.946 8.34 104.521 8.09733 104.036 7.924C103.568 7.75067 103.082 7.664 102.58 7.664ZM111.973 6.104H116.653V7.82H116.965C117.295 7.10933 117.763 6.58933 118.369 6.26C118.976 5.91333 119.669 5.74 120.449 5.74C121.749 5.74 122.798 6.16467 123.595 7.014C124.393 7.86333 124.817 9.10267 124.869 10.732L122.737 11.044C122.737 9.848 122.451 8.99 121.879 8.47C121.307 7.93267 120.605 7.664 119.773 7.664C119.236 7.664 118.768 7.768 118.369 7.976C117.988 8.184 117.667 8.47 117.407 8.834C117.147 9.198 116.957 9.62267 116.835 10.108C116.714 10.5933 116.653 11.1133 116.653 11.668V17.128H119.929V19H111.661V17.128H114.625V7.976H111.973V6.104Z" fill="#4B6A9B"/>
</svg>
