<svg width="20" height="20" viewBox="0 0 20 20" fill="none" xmlns="http://www.w3.org/2000/svg">
<path d="M7.40399 5.01202C5.04899 7.44902 5.56299 11.494 8.26099 13.285C8.34999 13.345 8.46799 13.333 8.54399 13.258C9.11199 12.703 9.59299 12.165 10.014 11.482C10.0292 11.4571 10.0391 11.4293 10.0431 11.4003C10.0471 11.3714 10.0451 11.3419 10.0372 11.3138C10.0293 11.2856 10.0157 11.2594 9.9973 11.2367C9.97885 11.2141 9.95594 11.1955 9.92999 11.182C9.48506 10.9268 9.1206 10.552 8.87799 10.1C8.5927 9.54433 8.51368 8.90548 8.65499 8.29702C8.82299 7.48202 9.69799 6.72402 10.366 6.02302L10.362 6.02102L12.866 3.46602C13.1035 3.22386 13.3866 3.03115 13.699 2.89901C14.0114 2.76688 14.3469 2.69794 14.686 2.69617C15.0252 2.6944 15.3614 2.75985 15.6751 2.88872C15.9889 3.0176 16.274 3.20735 16.514 3.44702C17.0032 3.92926 17.2817 4.5855 17.2886 5.27239C17.2955 5.95928 17.0304 6.62101 16.551 7.11302L15.034 8.67302C14.9996 8.70848 14.9758 8.75279 14.9652 8.801C14.9546 8.84922 14.9577 8.89943 14.974 8.94602C15.324 9.95802 15.409 11.386 15.175 12.465C15.169 12.495 15.206 12.515 15.228 12.493L18.456 9.19802C20.518 7.09302 20.5 3.66702 18.416 1.58302C17.9099 1.07796 17.3087 0.678108 16.6473 0.406547C15.9858 0.134986 15.2772 -0.00291302 14.5622 0.000805676C13.8471 0.00452437 13.1399 0.149787 12.4814 0.428214C11.8228 0.70664 11.2258 1.11272 10.725 1.62302L7.41699 4.99802L7.40399 5.01202Z" fill="#4B6A9B"/>
<path d="M13.439 13.75C13.441 13.749 13.443 13.748 13.445 13.747C14.104 12.543 14.233 11.161 13.925 9.81402L13.923 9.81602L13.922 9.81502C13.5936 8.54322 12.8156 7.43344 11.732 6.69102C11.6812 6.66031 11.6225 6.64534 11.5632 6.64801C11.504 6.65068 11.4468 6.67087 11.399 6.70602C10.846 7.15402 10.304 7.72702 9.94701 8.46002C9.91996 8.5152 9.91482 8.57858 9.93263 8.6374C9.95045 8.69622 9.98989 8.74611 10.043 8.77702C10.458 9.01702 10.833 9.37002 11.083 9.83802C11.279 10.168 11.472 10.796 11.347 11.47C11.231 12.364 10.328 13.184 9.61101 13.923C9.06501 14.482 7.67601 15.897 7.12101 16.465C6.63877 16.9542 5.98253 17.2327 5.29564 17.2396C4.60875 17.2466 3.94702 16.9814 3.45501 16.502C2.96567 16.0199 2.68701 15.3637 2.67989 14.6769C2.67277 13.99 2.93777 13.3282 3.41701 12.836L4.93801 11.272C4.97179 11.2372 4.99541 11.1939 5.00634 11.1467C5.01727 11.0994 5.01508 11.0501 5.00001 11.004C4.66201 9.96801 4.57001 8.57202 4.78301 7.49402C4.78901 7.46402 4.75201 7.44502 4.73001 7.46702L1.55101 10.712C-0.531991 12.838 -0.514991 16.3 1.59101 18.405C3.71601 20.488 7.16101 20.453 9.24401 18.327C9.96701 17.517 13.065 14.649 13.439 13.75Z" fill="#4B6A9B"/>
</svg>
