<svg width="20" height="20" viewBox="0 0 20 20" fill="none" xmlns="http://www.w3.org/2000/svg">
<path d="M19.513 11.397C19.4116 11.3733 19.3063 11.3726 19.2046 11.3947C19.1029 11.4168 19.0074 11.4613 18.925 11.525C18.2513 12.1014 17.4807 12.5538 16.649 12.861C15.8242 13.1741 14.9482 13.3308 14.066 13.323C13.0775 13.3233 12.0986 13.1283 11.1856 12.7492C10.2727 12.3701 9.44359 11.8144 8.74601 11.114C7.33549 9.69415 6.54482 7.77338 6.54701 5.772C6.54701 4.899 6.70101 4.052 6.95701 3.282C7.22652 2.4761 7.64249 1.72688 8.18401 1.072C8.23803 1.00465 8.27824 0.927312 8.30235 0.844412C8.32646 0.761511 8.33399 0.674672 8.32452 0.588858C8.31504 0.503045 8.28875 0.419939 8.24714 0.344294C8.20553 0.268648 8.14942 0.201945 8.08201 0.147999C7.99954 0.0842001 7.90386 0.0396046 7.80197 0.0174613C7.70008 -0.0046819 7.59453 -0.00381511 7.49301 0.0199986C5.32001 0.609999 3.42701 1.92 2.07201 3.666C0.724561 5.43811 -0.00342561 7.60379 1.21196e-05 9.83C1.21196e-05 12.63 1.12501 15.172 2.96701 17.02C3.90275 17.9673 5.01784 18.7188 6.24718 19.2304C7.47651 19.7421 8.79546 20.0037 10.127 20C12.48 20 14.654 19.178 16.393 17.817C18.1867 16.4 19.4484 14.4179 19.973 12.193C19.9991 12.1105 20.0076 12.0236 19.9982 11.9376C19.9888 11.8516 19.9616 11.7686 19.9183 11.6937C19.8751 11.6188 19.8167 11.5538 19.7469 11.5027C19.6771 11.4516 19.5975 11.4156 19.513 11.397Z" fill="#697C9A"/>
</svg>
