<svg width="25" height="24" viewBox="0 0 25 24" fill="none" xmlns="http://www.w3.org/2000/svg">
<path d="M10.609 0C16.459 0 21.217 4.746 21.217 10.58C21.217 13.189 20.265 15.58 18.69 17.427L23.802 22.514C23.959 22.678 24.0457 22.897 24.0435 23.124C24.0413 23.3511 23.9504 23.5683 23.7902 23.7293C23.63 23.8903 23.4133 23.9822 23.1862 23.9855C22.9592 23.9888 22.7398 23.9032 22.575 23.747L17.457 18.654C15.5433 20.2741 13.1164 21.1618 10.609 21.159C4.759 21.16 0 16.413 0 10.58C0 4.747 4.76 0 10.609 0ZM10.609 1.74C5.718 1.74 1.739 5.705 1.739 10.58C1.739 15.454 5.718 19.42 10.609 19.42C12.9327 19.4223 15.1641 18.5111 16.822 16.883L16.862 16.836C16.8805 16.8175 16.8999 16.7998 16.92 16.783C18.5597 15.1352 19.4795 12.9047 19.478 10.58C19.478 5.705 15.499 1.74 10.608 1.74H10.609Z" fill="#0079FF"/>
</svg>
