<svg width="20" height="20" viewBox="0 0 20 20" fill="none" xmlns="http://www.w3.org/2000/svg">
<path d="M13.545 6.455C12.645 5.555 11.375 4.974 10 4.974C9.34009 4.97125 8.68634 5.1009 8.07743 5.35528C7.46852 5.60967 6.91683 5.98362 6.455 6.455C5.555 7.355 4.974 8.625 4.974 10C4.974 11.376 5.556 12.646 6.455 13.545C7.355 14.445 8.625 15.026 10 15.026C10.6599 15.0288 11.3137 14.8991 11.9226 14.6447C12.5315 14.3903 13.0832 14.0164 13.545 13.545C14.445 12.645 15.026 11.375 15.026 10C15.0288 9.34009 14.8991 8.68634 14.6447 8.07743C14.3903 7.46852 14.0164 6.91683 13.545 6.455ZM10 3.413C10.1815 3.40991 10.3547 3.33644 10.4831 3.20808C10.6114 3.07971 10.6849 2.90651 10.688 2.725V0.688C10.6849 0.506495 10.6114 0.333286 10.4831 0.204924C10.3547 0.0765619 10.1815 0.00308574 10 0C9.81849 0.00308574 9.64529 0.0765619 9.51692 0.204924C9.38856 0.333286 9.31509 0.506495 9.312 0.688V2.725C9.31509 2.90651 9.38856 3.07971 9.51692 3.20808C9.64529 3.33644 9.81849 3.40991 10 3.413ZM15.635 5.344L17.09 3.889C17.1529 3.8267 17.2028 3.75256 17.2369 3.67086C17.2709 3.58916 17.2885 3.50152 17.2885 3.413C17.2885 3.32448 17.2709 3.23684 17.2369 3.15514C17.2028 3.07344 17.1529 2.9993 17.09 2.937C17.0277 2.87411 16.9536 2.82419 16.8719 2.79012C16.7902 2.75605 16.7025 2.73851 16.614 2.73851C16.5255 2.73851 16.4378 2.75605 16.3561 2.79012C16.2744 2.82419 16.2003 2.87411 16.138 2.937L14.683 4.392C14.6201 4.4543 14.5702 4.52844 14.5361 4.61014C14.5021 4.69184 14.4845 4.77948 14.4845 4.868C14.4845 4.95652 14.5021 5.04416 14.5361 5.12586C14.5702 5.20756 14.6201 5.2817 14.683 5.344C14.921 5.608 15.343 5.608 15.635 5.344ZM19.312 9.312H17.275C17.0935 9.31509 16.9203 9.38856 16.7919 9.51692C16.6636 9.64529 16.5901 9.81849 16.587 10C16.5901 10.1815 16.6636 10.3547 16.7919 10.4831C16.9203 10.6114 17.0935 10.6849 17.275 10.688H19.312C19.4935 10.6849 19.6667 10.6114 19.7951 10.4831C19.9234 10.3547 19.9969 10.1815 20 10C19.9969 9.81849 19.9234 9.64529 19.7951 9.51692C19.6667 9.38856 19.4935 9.31509 19.312 9.312ZM15.608 14.656C15.5457 14.5931 15.4716 14.5432 15.3899 14.5091C15.3082 14.4751 15.2205 14.4575 15.132 14.4575C15.0435 14.4575 14.9558 14.4751 14.8741 14.5091C14.7924 14.5432 14.7183 14.5931 14.656 14.656C14.5931 14.7183 14.5432 14.7924 14.5091 14.8741C14.4751 14.9558 14.4575 15.0435 14.4575 15.132C14.4575 15.2205 14.4751 15.3082 14.5091 15.3899C14.5432 15.4716 14.5931 15.5457 14.656 15.608L16.111 17.063C16.1733 17.1259 16.2474 17.1758 16.3291 17.2099C16.4108 17.2439 16.4985 17.2615 16.587 17.2615C16.6755 17.2615 16.7632 17.2439 16.8449 17.2099C16.9266 17.1758 17.0007 17.1259 17.063 17.063C17.1259 17.0007 17.1758 16.9266 17.2099 16.8449C17.2439 16.7632 17.2615 16.6755 17.2615 16.587C17.2615 16.4985 17.2439 16.4108 17.2099 16.3291C17.1758 16.2474 17.1259 16.1733 17.063 16.111L15.608 14.656ZM10 16.587C9.81849 16.5901 9.64529 16.6636 9.51692 16.7919C9.38856 16.9203 9.31509 17.0935 9.312 17.275V19.312C9.31509 19.4935 9.38856 19.6667 9.51692 19.7951C9.64529 19.9234 9.81849 19.9969 10 20C10.1815 19.9969 10.3547 19.9234 10.4831 19.7951C10.6114 19.6667 10.6849 19.4935 10.688 19.312V17.275C10.6849 17.0935 10.6114 16.9203 10.4831 16.7919C10.3547 16.6636 10.1815 16.5901 10 16.587ZM4.365 14.656L2.91 16.111C2.84711 16.1733 2.79719 16.2474 2.76312 16.3291C2.72905 16.4108 2.71151 16.4985 2.71151 16.587C2.71151 16.6755 2.72905 16.7632 2.76312 16.8449C2.79719 16.9266 2.84711 17.0007 2.91 17.063C2.9723 17.1259 3.04644 17.1758 3.12814 17.2099C3.20984 17.2439 3.29748 17.2615 3.386 17.2615C3.47452 17.2615 3.56216 17.2439 3.64386 17.2099C3.72556 17.1758 3.7997 17.1259 3.862 17.063L5.317 15.608C5.37989 15.5457 5.42981 15.4716 5.46388 15.3899C5.49795 15.3082 5.51549 15.2205 5.51549 15.132C5.51549 15.0435 5.49795 14.9558 5.46388 14.8741C5.42981 14.7924 5.37989 14.7183 5.317 14.656C5.079 14.392 4.657 14.392 4.365 14.656ZM3.413 10C3.40991 9.81849 3.33644 9.64529 3.20808 9.51692C3.07971 9.38856 2.90651 9.31509 2.725 9.312H0.688C0.506495 9.31509 0.333286 9.38856 0.204924 9.51692C0.0765619 9.64529 0.00308574 9.81849 0 10C0.00308574 10.1815 0.0765619 10.3547 0.204924 10.4831C0.333286 10.6114 0.506495 10.6849 0.688 10.688H2.725C2.90651 10.6849 3.07971 10.6114 3.20808 10.4831C3.33644 10.3547 3.40991 10.1815 3.413 10ZM4.365 5.344C4.4273 5.40689 4.50144 5.45681 4.58314 5.49088C4.66484 5.52495 4.75248 5.54249 4.841 5.54249C4.92952 5.54249 5.01716 5.52495 5.09886 5.49088C5.18056 5.45681 5.2547 5.40689 5.317 5.344C5.37989 5.2817 5.42981 5.20756 5.46388 5.12586C5.49795 5.04416 5.51549 4.95652 5.51549 4.868C5.51549 4.77948 5.49795 4.69184 5.46388 4.61014C5.42981 4.52844 5.37989 4.4543 5.317 4.392L3.862 2.937C3.7997 2.87411 3.72556 2.82419 3.64386 2.79012C3.56216 2.75605 3.47452 2.73851 3.386 2.73851C3.29748 2.73851 3.20984 2.75605 3.12814 2.79012C3.04644 2.82419 2.9723 2.87411 2.91 2.937C2.84711 2.9993 2.79719 3.07344 2.76312 3.15514C2.72905 3.23684 2.71151 3.32448 2.71151 3.413C2.71151 3.50152 2.72905 3.58916 2.76312 3.67086C2.79719 3.75256 2.84711 3.8267 2.91 3.889L4.365 5.344Z" fill="white"/>
</svg>
