<svg width="20" height="18" viewBox="0 0 20 18" fill="none" xmlns="http://www.w3.org/2000/svg">
<path d="M20 2.799C19.2475 3.12699 18.4516 3.3449 17.637 3.446C18.4954 2.93692 19.1373 2.13067 19.441 1.18C18.6373 1.65684 17.7579 1.99268 16.841 2.173C16.2789 1.57273 15.5492 1.15541 14.7469 0.975276C13.9445 0.795144 13.1064 0.860529 12.3417 1.16293C11.577 1.46533 10.9208 1.99077 10.4587 2.67096C9.99646 3.35115 9.74955 4.15463 9.75 4.977C9.75 5.301 9.777 5.614 9.845 5.911C6.436 5.745 3.42 4.111 1.393 1.623C1.0269 2.2522 0.833705 2.96703 0.833 3.695C0.833 5.115 1.563 6.374 2.653 7.103C2.00378 7.08567 1.36824 6.91247 0.8 6.598V6.643C0.801306 7.58964 1.12865 8.50695 1.72694 9.24057C2.32523 9.97418 3.15796 10.4793 4.085 10.671C3.73423 10.7634 3.37273 10.8088 3.01 10.806C2.747 10.806 2.482 10.791 2.234 10.736C2.765 12.36 4.272 13.554 6.065 13.593C4.61332 14.7274 2.82333 15.3425 0.981 15.34C0.653161 15.3426 0.325491 15.3242 0 15.285C1.87486 16.4931 4.0596 17.1322 6.29 17.125C13.835 17.125 17.96 10.875 17.96 5.458C17.96 5.276 17.954 5.101 17.945 4.928C18.7538 4.34886 19.4502 3.62805 20 2.799Z" fill="#4B6A9B"/>
</svg>
