<svg width="15" height="14" viewBox="0 0 15 14" fill="none" xmlns="http://www.w3.org/2000/svg">
<path d="M11.1197 0.370874L7.14219 4.34835L3.16472 0.370874C2.67665 -0.117195 1.88502 -0.117195 1.39695 0.370874L0.513065 1.25476C0.0249955 1.74283 0.0249954 2.53446 0.513065 3.02252L4.49054 7L0.513065 10.9775C0.0249954 11.4655 0.0249955 12.2572 0.513065 12.7452L1.39695 13.6291C1.88502 14.1172 2.67665 14.1172 3.16472 13.6291L7.14219 9.65165L11.1197 13.6291C11.6077 14.1172 12.3994 14.1172 12.8874 13.6291L13.7713 12.7452C14.2594 12.2572 14.2594 11.4655 13.7713 10.9775L9.79384 7L13.7713 3.02252C14.2594 2.53445 14.2594 1.74283 13.7713 1.25476L12.8874 0.370874C12.3994 -0.117195 11.6077 -0.117196 11.1197 0.370874Z" fill="#4B6A9B"/>
</svg>
